<svg width="680" height="430" viewBox="0 0 680 430" fill="none" xmlns="http://www.w3.org/2000/svg">
<style>
@font-face {
  font-family: 'Inter';
  font-style: normal;
  font-weight: 400;
  font-display: swap;
  src: url(https://fonts.gstatic.com/s/inter/v3/UcCO3FwrK3iLTeHuS_fvQtMwCp50KnMw2boKoduKmMEVuLyfAZ9hjp-Ek-_EeA.woff) format('woff');
  unicode-range: U+0000-00FF, U+0131, U+0152-0153, U+02BB-02BC, U+02C6, U+02DA, U+02DC, U+2000-206F, U+2074, U+20AC, U+2122, U+2191, U+2193, U+2212, U+2215, U+FEFF, U+FFFD;
}
</style>
<rect width="680" height="430" rx="10" fill="#27AE60"/>
<g opacity="0.8">
<g filter="url(#filter0_d)">
<rect x="145" y="269" width="390" height="96" rx="6.36735" fill="white"/>
</g>
<text fill="black" xml:space="preserve" style="white-space: pre" font-family="Inter,-apple-system,BlinkMacSystemFont,Segoe UI,Helvetica,Arial,sans-serif,Apple Color Emoji,Segoe UI Emoji,Segoe UI Symbol" font-size="15.9184" letter-spacing="-0.016em"><tspan x="160.933" y="347.054">Algo sucede con el sitio web en Singapur.</tspan></text>
<text fill="black" xml:space="preserve" style="white-space: pre" font-family="Inter,-apple-system,BlinkMacSystemFont,Segoe UI,Helvetica,Arial,sans-serif,Apple Color Emoji,Segoe UI Emoji,Segoe UI Symbol" font-size="15.9184" letter-spacing="-0.016em"><tspan x="160.933" y="325.079">Atenci&#xf3;n!</tspan></text>
<text fill="#8A8A8F" xml:space="preserve" style="white-space: pre" font-family="Inter,-apple-system,BlinkMacSystemFont,Segoe UI,Helvetica,Arial,sans-serif,Apple Color Emoji,Segoe UI Emoji,Segoe UI Symbol" font-size="12.7347" letter-spacing="-0.006em"><tspan x="452.638" y="295.293">Ayer, 21:34</tspan></text>
<text fill="#8A8A8F" xml:space="preserve" style="white-space: pre" font-family="Inter,-apple-system,BlinkMacSystemFont,Segoe UI,Helvetica,Arial,sans-serif,Apple Color Emoji,Segoe UI Emoji,Segoe UI Symbol" font-size="12.7347" letter-spacing="-0.006em"><tspan x="187.974" y="295.564">SMS</tspan></text>
<rect x="160.933" y="281.586" width="19.102" height="18.8852" rx="3" fill="#33D08E"/>
<path d="M170.5 295.337C173.538 295.337 176 293.246 176 290.668C176 288.09 173.538 286 170.5 286C167.462 286 165 288.09 165 290.668C165 292.336 166.031 293.8 167.582 294.626C167.584 295.081 167.482 295.621 167.095 295.865C166.512 296.233 168.183 295.802 168.901 295.136C169.407 295.266 169.944 295.337 170.5 295.337Z" fill="white"/>
</g>
<g filter="url(#filter1_d)">
<rect x="120" y="173" width="439" height="109" rx="7.16735" fill="white"/>
</g>
<text fill="black" xml:space="preserve" style="white-space: pre" font-family="Inter,-apple-system,BlinkMacSystemFont,Segoe UI,Helvetica,Arial,sans-serif,Apple Color Emoji,Segoe UI Emoji,Segoe UI Symbol" font-size="17.9184" letter-spacing="-0.016em"><tspan x="137.935" y="261.569">Mit der Website in Singapur passiert etwas.</tspan></text>
<text fill="black" xml:space="preserve" style="white-space: pre" font-family="Inter,-apple-system,BlinkMacSystemFont,Segoe UI,Helvetica,Arial,sans-serif,Apple Color Emoji,Segoe UI Emoji,Segoe UI Symbol" font-size="17.9184" letter-spacing="-0.016em"><tspan x="137.935" y="235.524">Achtung!</tspan></text>
<text fill="#8A8A8F" xml:space="preserve" style="white-space: pre" font-family="Inter,-apple-system,BlinkMacSystemFont,Segoe UI,Helvetica,Arial,sans-serif,Apple Color Emoji,Segoe UI Emoji,Segoe UI Symbol" font-size="14.3347" letter-spacing="-0.006em"><tspan x="454.323" y="202.735">Heute, 16:34</tspan></text>
<text fill="#8A8A8F" xml:space="preserve" style="white-space: pre" font-family="Inter,-apple-system,BlinkMacSystemFont,Segoe UI,Helvetica,Arial,sans-serif,Apple Color Emoji,Segoe UI Emoji,Segoe UI Symbol" font-size="14.3347" letter-spacing="-0.006em"><tspan x="168.373" y="203.116">SLACK</tspan></text>
<rect x="137.935" y="187.29" width="21.502" height="21.4426" rx="4" fill="#FF517B"/>
<path d="M151.53 193.2V196.401C151.53 197.063 150.993 197.601 150.33 197.601C149.667 197.601 149.13 197.063 149.13 196.401V193.2C149.13 192.537 149.667 192 150.33 192C150.993 192 151.53 192.537 151.53 193.2Z" fill="white"/>
<path d="M143.931 195.2H147.131C147.794 195.2 148.331 195.737 148.331 196.4C148.331 197.063 147.794 197.6 147.131 197.6H143.931C143.268 197.6 142.73 197.063 142.73 196.4C142.73 195.737 143.268 195.2 143.931 195.2Z" fill="white"/>
<path d="M150.33 200.8H153.53C154.193 200.8 154.73 200.262 154.73 199.599C154.73 198.937 154.193 198.399 153.53 198.399H150.33C149.667 198.399 149.13 198.937 149.13 199.599C149.13 200.262 149.667 200.8 150.33 200.8Z" fill="white"/>
<path d="M145.93 202.8V199.599C145.93 198.937 146.467 198.399 147.13 198.399C147.793 198.399 148.33 198.937 148.33 199.599V202.8C148.33 203.463 147.793 204 147.13 204C146.467 204 145.93 203.463 145.93 202.8Z" fill="white"/>
<path d="M147.13 192C146.467 192 145.93 192.537 145.93 193.2C145.93 193.863 146.467 194.4 147.13 194.4H148.33V193.2C148.33 192.537 147.793 192 147.13 192Z" fill="white"/>
<path d="M153.53 195.2C154.192 195.2 154.73 195.737 154.73 196.4C154.73 197.063 154.192 197.6 153.53 197.6H152.329V196.4C152.329 195.737 152.867 195.2 153.53 195.2Z" fill="white"/>
<path d="M150.33 203.999C150.993 203.999 151.53 203.462 151.53 202.799C151.53 202.136 150.993 201.599 150.33 201.599H149.13V202.799C149.13 203.462 149.667 203.999 150.33 203.999Z" fill="white"/>
<path d="M143.931 200.8C143.268 200.8 142.73 200.262 142.73 199.599C142.73 198.937 143.268 198.399 143.931 198.399H145.131V199.599C145.131 200.262 144.593 200.8 143.931 200.8Z" fill="white"/>
<g filter="url(#filter2_d)">
<rect x="95" y="65" width="490" height="122" rx="8" fill="white"/>
</g>
<text fill="black" xml:space="preserve" style="white-space: pre" font-family="Inter,-apple-system,BlinkMacSystemFont,Segoe UI,Helvetica,Arial,sans-serif,Apple Color Emoji,Segoe UI Emoji,Segoe UI Symbol" font-size="20" letter-spacing="-0.016em"><tspan x="115" y="164.043">Something happens with website in Singapore.</tspan></text>
<text fill="black" xml:space="preserve" style="white-space: pre" font-family="Inter,-apple-system,BlinkMacSystemFont,Segoe UI,Helvetica,Arial,sans-serif,Apple Color Emoji,Segoe UI Emoji,Segoe UI Symbol" font-size="20" letter-spacing="-0.016em"><tspan x="115" y="136.043">Alert!</tspan></text>
<text fill="#8A8A8F" xml:space="preserve" style="white-space: pre" font-family="Inter,-apple-system,BlinkMacSystemFont,Segoe UI,Helvetica,Arial,sans-serif,Apple Color Emoji,Segoe UI Emoji,Segoe UI Symbol" font-size="16" letter-spacing="-0.006em"><tspan x="534.413" y="98.2344">now</tspan></text>
<text fill="#8A8A8F" xml:space="preserve" style="white-space: pre" font-family="Inter,-apple-system,BlinkMacSystemFont,Segoe UI,Helvetica,Arial,sans-serif,Apple Color Emoji,Segoe UI Emoji,Segoe UI Symbol" font-size="16" letter-spacing="-0.006em"><tspan x="149" y="98.2344">TELEGRAM</tspan></text>
<rect x="115" y="81" width="24" height="24" rx="6" fill="#51D5FF"/>
<path d="M119.711 92.6167C121.144 91.8683 122.742 91.2436 124.236 90.6157C126.806 89.5873 129.386 88.5768 131.993 87.636C132.5 87.4757 133.411 87.3189 133.5 88.0318C133.451 89.0409 133.25 90.0441 133.112 91.0473C132.761 93.2534 132.357 95.452 131.962 97.6508C131.826 98.3833 130.858 98.7624 130.24 98.2937C128.752 97.3407 127.254 96.397 125.786 95.4218C125.305 94.9582 125.751 94.2924 126.18 93.9614C127.405 92.8162 128.704 91.8432 129.865 90.6388C130.178 89.9215 129.253 90.526 128.948 90.7113C127.271 91.8076 125.635 92.9708 123.867 93.9343C122.964 94.4059 121.911 94.0028 121.009 93.7397C120.2 93.4218 119.014 93.1015 119.711 92.6168L119.711 92.6167Z" fill="white"/>
<defs>
<filter id="filter0_d" x="130.673" y="257.857" width="418.653" height="124.653" filterUnits="userSpaceOnUse" color-interpolation-filters="sRGB">
<feFlood flood-opacity="0" result="BackgroundImageFix"/>
<feColorMatrix in="SourceAlpha" type="matrix" values="0 0 0 0 0 0 0 0 0 0 0 0 0 0 0 0 0 0 127 0"/>
<feOffset dy="3.18367"/>
<feGaussianBlur stdDeviation="7.16327"/>
<feColorMatrix type="matrix" values="0 0 0 0 0.491667 0 0 0 0 0.463642 0 0 0 0 0.454792 0 0 0 0.14 0"/>
<feBlend mode="normal" in2="BackgroundImageFix" result="effect1_dropShadow"/>
<feBlend mode="normal" in="SourceGraphic" in2="effect1_dropShadow" result="shape"/>
</filter>
<filter id="filter1_d" x="103.873" y="160.457" width="471.253" height="141.253" filterUnits="userSpaceOnUse" color-interpolation-filters="sRGB">
<feFlood flood-opacity="0" result="BackgroundImageFix"/>
<feColorMatrix in="SourceAlpha" type="matrix" values="0 0 0 0 0 0 0 0 0 0 0 0 0 0 0 0 0 0 127 0"/>
<feOffset dy="3.58367"/>
<feGaussianBlur stdDeviation="8.06326"/>
<feColorMatrix type="matrix" values="0 0 0 0 0.491667 0 0 0 0 0.463642 0 0 0 0 0.454792 0 0 0 0.14 0"/>
<feBlend mode="normal" in2="BackgroundImageFix" result="effect1_dropShadow"/>
<feBlend mode="normal" in="SourceGraphic" in2="effect1_dropShadow" result="shape"/>
</filter>
<filter id="filter2_d" x="35" y="15" width="610" height="242" filterUnits="userSpaceOnUse" color-interpolation-filters="sRGB">
<feFlood flood-opacity="0" result="BackgroundImageFix"/>
<feColorMatrix in="SourceAlpha" type="matrix" values="0 0 0 0 0 0 0 0 0 0 0 0 0 0 0 0 0 0 127 0"/>
<feOffset dy="10"/>
<feGaussianBlur stdDeviation="30"/>
<feColorMatrix type="matrix" values="0 0 0 0 0 0 0 0 0 0 0 0 0 0 0 0 0 0 0.2 0"/>
<feBlend mode="normal" in2="BackgroundImageFix" result="effect1_dropShadow"/>
<feBlend mode="normal" in="SourceGraphic" in2="effect1_dropShadow" result="shape"/>
</filter>
</defs>
</svg>
